<svg fill="{{COLOR}}" xmlns="http://www.w3.org/2000/svg" xmlns:xlink="http://www.w3.org/1999/xlink" version="1.1" x="0px" y="0px" viewBox="0 0 100 100" enable-background="new 0 0 100 100" xml:space="preserve"><g><g><path d="M55.7,80.5L20.3,45.2c-2.6-2.6-4.1-6.2-4.1-9.9c0-3.7,1.5-7.3,4.1-9.9c2.6-2.6,6.2-4.1,9.9-4.1c3.7,0,7.3,1.5,9.9,4.1    l35.4,35.4l-2.8,2.8L37.3,28.2c-1.9-1.9-4.4-2.9-7.1-2.9c-2.7,0-5.2,1-7.1,2.9s-2.9,4.4-2.9,7.1c0,2.7,1,5.2,2.9,7.1l35.4,35.4    L55.7,80.5z"/><path d="M61.3,74.8L26,39.5c-2.3-2.3-2.3-6.1,0-8.5c2.3-2.3,6.1-2.3,8.5,0l35.4,35.4L67,69.2L31.6,33.8c-0.8-0.8-2-0.8-2.8,0    c-0.8,0.8-0.8,2,0,2.8L64.1,72L61.3,74.8z"/></g><g><path d="M85.4,19.7c-8.6-8.6-22.5-8.6-31.1,0L50,23.9l-4.2-4.2c-8.6-8.6-22.5-8.6-31.1,0c-8.6,8.6-8.6,22.5,0,31.1L50,86.2    l2.8-2.8L17.5,48c-7-7-7-18.4,0-25.5c7-7,18.4-7,25.5,0l35.4,35.4l1.4-1.4l1.4-1.4l4.2-4.2C93.9,42.2,93.9,28.3,85.4,19.7z     M64.1,38.1l4.2-4.2c0.8-0.8,2.1-0.8,2.8,0c0.4,0.4,0.6,0.9,0.6,1.4c0,0.5-0.2,1-0.6,1.4L67,40.9L64.1,38.1z M69.8,43.7l4.2-4.2    c1.1-1.1,1.8-2.6,1.8-4.2c0-1.6-0.6-3.1-1.8-4.2s-2.6-1.8-4.2-1.8c-1.6,0-3.1,0.6-4.2,1.8l-4.2,4.2l-2.8-2.8l4.2-4.2    c3.9-3.9,10.2-3.9,14.1,0c1.9,1.9,2.9,4.4,2.9,7.1c0,2.7-1,5.2-2.9,7.1l-4.2,4.2L69.8,43.7z M82.5,48l-4.2,4.2l-2.8-2.8l4.2-4.2    c2.6-2.6,4.1-6.2,4.1-9.9s-1.5-7.2-4.1-9.9c-5.5-5.5-14.3-5.5-19.8,0l-4.2,4.2l-2.8-2.8l4.2-4.2c7-7,18.4-7,25.5,0    C89.5,29.5,89.5,41,82.5,48z"/></g></g></svg>